<?xml version="1.0" encoding="utf-8"?>
<!-- Generator: Adobe Illustrator 22.0.0, SVG Export Plug-In . SVG Version: 6.00 Build 0)  -->
<svg version="1.1" id="Capa_1" xmlns="http://www.w3.org/2000/svg" xmlns:xlink="http://www.w3.org/1999/xlink" x="0px" y="0px"
	 viewBox="0 0 297.3 222.2" style="enable-background:new 0 0 297.3 222.2;" xml:space="preserve">
<style type="text/css">
	.st0{fill:#F1F1F1;}
	.st1{fill:#0AABE9;}
	.st2{fill:#DA232C;}
</style>
<g>
	<path class="st0" d="M273,211c-1-0.7-2.1-0.9-3.1-1c-1.8-0.2-3.6-0.4-5.3-0.6c-4.7-0.5-9.5-0.7-14.3-1.1c-3.2-0.3-6.4-0.3-9.5-0.4
		c-3.9-0.2-7.8-0.3-11.7-0.5c-6.5-0.2-13-0.3-19.5-0.5c-7-0.2-14-0.2-21-0.2c-23.3,0-46.6-0.3-69.9,0.2c-4.1,0.1-8.1,0-12.2,0.2
		c-4.4,0.2-8.8,0.4-13.2,0.3c-2,0-4.1,0-6.1,0.2c-4,0.4-8,0.4-11.9,0.5c-3.9,0.1-7.8,0.5-11.7,0.6c-1.4,0-2.8,0.1-4.2,0.2
		c-3.7,0.4-7.4,0.7-11.1,1.2c-1.1,0.1-2.4,0.2-3.5,1.2c0.5,0.3,0.8,0.6,1.2,0.7c3.3,0.7,6.6,1.1,10,1.3c1.5,0.1,3.1,0,4.6,0.3
		c3.7,0.6,7.4,0.5,11.2,0.9c2.2,0.2,4.5,0.1,6.7,0.2c4.1,0.2,8.2,0.3,12.3,0.5c3.7,0.2,7.5-0.1,11.3,0.2c3.7,0.3,7.5,0,11.2,0.2
		c5.3,0.3,10.5,0.2,15.8,0.2c20.6,0,41.2,0.3,61.8-0.1c6.5-0.2,12.9,0,19.4-0.3c2.4-0.1,4.8-0.1,7.2-0.2c6.3-0.1,12.6-0.3,18.9-0.5
		c3.3-0.1,6.7-0.4,10-0.4c4.8-0.1,9.6-0.7,14.4-0.9c3-0.1,6-0.5,9-0.9C270.8,212.1,272,212.1,273,211z"/>
	<path class="st1" d="M288.7,55.2L288.7,55.2L288.7,55.2c-0.1-0.6-0.4-1-0.7-1.3c-0.3-0.7-0.8-1.3-1-2c0.7-0.5,1.4-0.9,2-1.5
		c1-0.9,0.9-1.8-0.2-2.5c-0.7-0.5-1.5-1-2.2-1.6c-0.8-0.6-1.5-0.7-2.1,0.2c-0.6,0.8-0.9,0.5-1.3-0.1c-0.6-1.1-1.3-2.1-2-3.1
		c-0.4-0.7-1.2-1.3-1.2-2.1c0-0.9,1.1-1.1,1.7-1.6c1.1-0.9,1.1-1.8-0.1-2.7c-0.4-0.3-0.9-0.7-1.3-1c-1.9-1.4-1.9-1.4-3.5,0.1
		c-0.3-0.1-0.4-0.3-0.6-0.5c-0.8-1.3-1.6-2.6-2.5-3.9c-0.6-0.8-0.6-1.5,0-2.4c1.6-2.2,3.3-4.5,4.7-6.9c0.6-0.7,0.9-1.5,1.2-2.3
		c0.1-0.1,0.1-0.1,0.2-0.2c0.6-0.2,0.7-0.7,0.7-1.3l0-0.1c0.6-0.4,0.6-1.2,0.9-1.8c0.8-1.2,1.3-2.5,1.7-3.8c0.4-1.1,1.2-2,1.1-3.2
		c0-0.1,0-0.2,0.1-0.3c0.7-0.8,0.3-1.9,0.5-2.8c0.2-1.7,0.1-3.4-1-4.7c-1.2-1.4-3.4-1.6-5.7-0.7C275.2,2,272.8,4,270.5,6
		c-3.8,3.3-7.1,7.2-10,11.3c-1.4,2-2.7,2.6-4.9,1.6c-1.2-0.5-2.5-0.5-3.7-1.2c1-2,1-2-0.8-3.3c-0.1,0-0.1-0.1-0.2-0.2
		c-3-2.6-3.6-1.6-4.4,1.5c-0.5,0.6-1.1,0.3-1.7,0.3c-1.6-0.5-3.1-1-4.7-1.3c-0.9-0.2-1-0.6-0.6-1.3c0.5-0.8,0.2-1.4-0.5-1.9
		c-0.8-0.6-1.7-1.2-2.5-1.8c-0.7-0.6-1.3-0.4-1.8,0.3c-0.5,0.6-0.7,1.4-0.9,2.2c-0.2,0.6-0.4,0.9-1.1,0.7c-2.4-0.6-4.8-1.3-7.3-1.9
		c-3.2-0.7-6.4-1.2-9.6-0.2c-0.4,0.1-1,0.1-1.1,0.7c-0.1,0.7,0.4,0.9,0.9,1.1c4.1,2.3,8.2,4.6,12.2,7c0.7,0.4,1.5,0.8,0.9,1.9
		c-0.2,0.4,0.1,0.8,0.4,1c0.4,0.3,0.8,0.4,1.2,0.2c0.4-0.3,0.9-0.6,1.3-0.9c2.4,1.4,4.7,2.8,7.1,4c0.9,0.5,1.1,1,0.8,1.8
		c-0.2,0.5-0.1,0.8,0.4,1.1c0.4,0.3,0.9,0.6,1.3,0.1c1-1.1,1.9-0.7,2.9,0c0.4,0.3,0.8,0.5,1.3,0.7c1.7,1,3.3,2,5.1,3
		c-0.9,1.4-1.7,2.6-2.5,3.8c-1.6,2.5-3.5,4.9-4.8,7.6c-0.1,0.1-0.3,0.3-0.4,0.4c-2.8,4.4-5.3,8.9-7.1,13.9c-5.7,0.7-11.3,1.4-17,2.1
		c-0.6,0.1-1.5-0.1-1.6,0.9c0,0.8,0.8,0.8,1.4,1c4.5,1.4,9,2.9,13.6,4.4c-0.4,2.1-2,3.8-1.5,6.2c2.5,0.1,3.6-2.2,5.5-3.1
		c0.4,0.2,0.6,0.6,0.8,0.9c2.6,3.6,5.2,7.3,7.8,10.9c0.3,0.4,0.4,1,1.2,0.8c0.7-0.3,0.5-0.9,0.4-1.5c-0.4-2.1-0.8-4.1-1.2-6.2
		c-0.6-3.2-1.2-6.5-1.8-9.8c-0.1-0.6-0.2-1.3,0.5-1.8c6.2-5,11-11.3,16-17.4c1.1-1.3,2.1-2.5,3.3-3.9c2.3,2.1,4.5,4.1,6.7,6.2
		c-0.7,2.3-0.7,2.3,0.8,3c0.5-0.2,0.8-0.7,1.5-0.8c0.3,0.3,0.6,0.5,0.9,0.8c1.7,1.5,3.4,3,5,4.5c0,0.1,0.1,0.3,0.3,0.2
		c0.1,0.4,0.6,0.5,0.6,1c-0.1,0.2-0.2,0.3-0.2,0.5c-0.2,0.6-0.5,1.1,0.1,1.6c0.6,0.6,1.1,0.4,1.7,0c0.6-0.4,1,0,1.4,0.4
		c3.5,3.2,6.9,6.4,10.4,9.6c0.4,0.4,0.8,0.9,1.4,0.6c0.7-0.3,0.5-1,0.4-1.5c-0.4-3.9-2-7.4-4.2-10.6
		C289.8,56.4,289.4,55.7,288.7,55.2z"/>
	<path d="M10.4,122.7c0.1-0.3,0.2-0.6,0.1-0.9c0.2-0.7-0.3-0.5-0.6-0.5c-0.2,0-0.3,0-0.5,0c-0.1,0-0.2,0-0.2,0
		c-0.5,1-0.2,2.1-0.2,3.1c0,0.2,0,0.3,0,0.5c0,0.6,0,1.1,0,1.7c0.2,0.5,0.6,0.2,0.9,0.2c0.1,0,0.2,0,0.2,0c0.7-0.3,0.2-0.8,0.2-1.2
		c0-0.6,0-1.3,0-1.9C10.3,123.3,10.3,123,10.4,122.7z M82.7,183.5c-1.8-1.5-4.4-1.5-6,0.2c-1.7,1.7-1.8,4.3-0.2,6
		c1,1.4,2.5,1.8,4.1,1.6c1.8-0.3,3.1-1.4,3.6-3.3C84.5,186.3,84.2,184.7,82.7,183.5z M53,179.3c-1.8-0.8-3.4-1.5-5.1-2.3
		c-0.2,0.5-0.4,1-0.7,1.5c1.7,0.8,3.4,1.5,5.1,2.3C52.6,180.2,52.7,179.8,53,179.3z M225.5,83.8c-1,1.7-1.8,3.3-2.7,4.9
		c0.5,0.3,0.9,0.5,1.4,0.8c0.9-1.6,1.8-3.2,2.7-4.8C226.4,84.4,226,84.1,225.5,83.8z M205.9,126.5c1-1.7,1.9-3.2,2.8-4.8
		c-0.5-0.4-0.9-0.7-1.4-0.7c-0.9,1.6-1.8,3.1-2.7,4.7C205,126,205.4,126.2,205.9,126.5z M217.7,102.8c-0.7,0.1-1-0.6-1.6-0.4
		c-0.8,1.7-1.5,3.3-2.3,4.9c0.5,0.3,0.9,0.5,1.5,0.7C216,106.3,216.8,104.7,217.7,102.8z M143.4,149.7c1.7,1,3.3,1.8,5.1,2.4
		c0.3-0.5,0.5-0.9,0.5-1.5c-1.7-0.6-3.2-1.4-4.8-2.3C144,148.8,143.7,149.2,143.4,149.7z M16.3,151.2c1,1.7,2,3.2,3.2,4.7
		c0.4-0.3,0.8-0.6,1.2-0.9c-1-1.5-2-3-3.1-4.6C17.2,150.7,16.8,150.9,16.3,151.2z M121.2,99.6c0.4-0.4,1-0.4,1.3-0.9
		c-0.8-1.7-1.6-3.3-2.6-4.8c-0.5,0.3-0.9,0.6-1.3,0.8C119.4,96.3,120.3,97.9,121.2,99.6z M222,93.7c-0.6-0.3-1-0.5-1.5-0.7
		c-0.8,1.6-1.6,3.3-2.4,5c0.5,0.2,0.9,0.5,1.4,0.7C220.4,97,221.2,95.4,222,93.7z M211.8,111.6c-0.8,1.7-1.6,3.3-2.4,5
		c0.5,0.3,0.9,0.5,1.4,0.7c0.8-1.7,1.6-3.4,2.4-5.1C212.7,112.1,212.3,111.9,211.8,111.6z M43.8,174.8c-1.6-1-3.1-1.9-4.7-2.9
		c-0.3,0.4-0.6,0.9-0.9,1.3c1.6,1,3.2,1.9,4.8,2.9C43.3,175.7,43.5,175.3,43.8,174.8z M129.7,128.9c-0.4-1.8-0.9-3.5-1.3-5.2
		c-0.6-0.1-1,0.2-1.5,0.3c0.4,1.9,0.7,3.7,1.4,5.4C128.8,129.2,129.2,129.1,129.7,128.9z M153.3,153.6c1.9,0.3,3.6,0.7,5.5,0.6
		c0-0.5,0-1,0.1-1.5c-1.8-0.2-3.5-0.5-5.3-0.7C153.4,152.4,153.3,152.9,153.3,153.6z M47.6,70.6c1.7-0.6,3.4-1.2,5.2-1.9
		c-0.4-0.5-0.2-1.1-0.7-1.4c-1.7,0.6-3.5,1.1-5.1,1.9C47.2,69.7,47.3,70.2,47.6,70.6z M23.8,89.2c1.2-1.4,2.4-2.8,3.5-4.2
		c-0.4-0.4-0.8-0.7-1.2-1.1c-1.2,1.5-2.4,2.9-3.6,4.3C23,88.6,23.3,88.9,23.8,89.2z M42.6,71.2c-1.7,0.9-3.3,1.8-4.9,2.9
		c0.5,0.4,0.5,0.9,1,1.2c1.6-0.9,3.1-1.8,4.7-2.7C43.1,72.1,42.9,71.7,42.6,71.2z M87.4,69.7c1.7,0.7,3.4,1.4,5.1,2
		c0.2-0.5,0.4-0.9,0.7-1.5c-1.8-0.7-3.5-1.4-5.1-2C87.6,68.7,87.5,69.2,87.4,69.7z M83.3,66.9c-1.9-0.4-3.7-0.9-5.5-1.1
		c-0.1,0.6-0.2,1-0.3,1.5c1.8,0.4,3.6,0.8,5.4,1.1C83,67.9,83.2,67.5,83.3,66.9z M22.4,159.6c1.3,1.4,2.6,2.8,3.9,4.2
		c0.4-0.4,0.8-0.8,1.1-1.2c-1.3-1.4-2.5-2.7-3.8-4C23.2,159,22.9,159.3,22.4,159.6z M133.9,138.1c-1-1.6-1.8-3.2-2.6-4.8
		c-0.5,0.2-0.9,0.4-1.4,0.7c0.7,1.8,1.6,3.4,2.6,5C133.1,138.6,133.5,138.4,133.9,138.1z M13.3,141.3c-0.5,0.1-1,0.2-1.4,0.6
		c0.6,1.8,1.3,3.4,2.2,5.1c0.5-0.2,0.9-0.5,1.4-0.7C14.7,144.6,14,142.9,13.3,141.3z M13.7,106.9c0.8-1.8,1.5-3.4,2.2-5.1
		c-0.5-0.3-0.9-0.6-1.4-0.6c-0.8,1.7-1.6,3.4-2.2,5.1C12.8,106.5,13.2,106.7,13.7,106.9z M126.1,108.7c-0.5-1.8-1-3.6-1.7-5.4
		c-0.5,0.2-1,0.4-1.5,0.6c0.6,1.8,1.1,3.5,1.6,5.3C125.1,108.9,125.6,108.8,126.1,108.7z M201.9,129.5c-1.2,1.5-2.3,2.9-3.5,4.4
		c0.5,0.3,0.8,0.7,1.3,1c1.2-1.5,2.3-2.9,3.5-4.4C202.7,130.1,202.3,129.8,201.9,129.5z M182.8,146.7c0.4,0.4,0.4,1,0.9,1.3
		c1.6-0.9,3.2-1.8,4.7-3c-0.3-0.5-0.6-0.8-0.9-1.2C185.9,144.8,184.4,145.7,182.8,146.7z M10.8,110.9c-0.6,1.8-1,3.6-1.2,5.6
		c0.6-0.2,1,0.1,1.5,0.1c0.4-1.8,0.8-3.6,1.2-5.4C11.7,111.1,11.3,111,10.8,110.9z M163.7,154.2c1.9-0.1,3.7-0.3,5.6-0.7
		c0-0.5,0-1-0.3-1.5c-1.7,0.2-3.5,0.5-5.2,0.7C163.7,153.2,163.7,153.7,163.7,154.2z M56.8,182.5c1.9,0.6,3.6,1.2,5.3,1.7
		c0.2-0.6,0.3-1,0.5-1.5c-1.8-0.6-3.5-1.1-5.3-1.7C57.2,181.5,57,181.9,56.8,182.5z M62.7,66.8c-0.1-0.5,0.1-1.1-0.3-1.5
		c-1.9,0.2-3.7,0.4-5.4,0.9c0.1,0.5,0,1,0.4,1.5C59.1,67.3,60.9,67.1,62.7,66.8z M178.7,148.8c-1.8,0.7-3.4,1.3-5.1,1.9
		c0.2,0.5,0.2,1.1,0.6,1.5c1.8-0.6,3.5-1.2,5.1-2C179.1,149.8,178.9,149.3,178.7,148.8z M140.5,145.6c-1.5-1.2-2.7-2.5-3.9-3.8
		c-0.4,0.4-0.8,0.7-1.2,1c1.3,1.5,2.5,2.9,4.1,4C139.8,146.4,140.1,146.1,140.5,145.6z M29.8,167c1.5,1.2,2.9,2.3,4.4,3.5
		c0.4-0.4,0.7-0.8,1-1.3c-1.4-1.1-2.8-2.3-4.3-3.4C30.5,166.2,30.2,166.6,29.8,167z M10.4,137.2c0.5-0.1,1-0.2,1.5-0.4
		c-0.4-1.8-0.7-3.6-1.1-5.4c-0.5,0.1-1,0.2-1.5,0.3C9.5,133.5,9.9,135.3,10.4,137.2z M110.5,82c-1.5-1.3-2.9-2.5-4.3-3.8
		c-0.4,0.5-0.8,0.8-1,1.3c1.4,1.2,2.7,2.4,4.1,3.6C109.7,82.7,110,82.4,110.5,82z M125.5,113.6c0.2,1.9,0.4,3.6,0.6,5.4
		c0.5,0.1,1,0.1,1.5-0.1c0-1.9-0.3-3.7-0.6-5.6C126.5,113.5,126.1,113.6,125.5,113.6z M101.4,76.7c0.3-0.5,0.6-0.9,0.9-1.4
		c-1.6-1-3.2-1.9-4.8-2.9c-0.3,0.5-0.5,0.9-0.8,1.4C98.3,74.8,99.8,75.8,101.4,76.7z M192.2,142.2c1.4-1.3,2.9-2.4,4.1-3.8
		c-0.4-0.4-0.7-0.8-1-1.1c-1.4,1.3-2.8,2.5-4.1,3.7C191.5,141.4,191.8,141.7,192.2,142.2z M66.8,185.5c1.9,0.4,3.7,0.8,5.4,1.1
		c0.2-0.6,0.4-1.1,0.2-1.6c-1.7-0.4-3.5-0.7-5.2-1.1C66.9,184.4,66.9,184.9,66.8,185.5z M18.1,97.7c1-1.6,1.9-3.1,2.9-4.6
		c-0.4-0.3-0.8-0.6-1.3-0.9c-1.1,1.5-2.1,3.1-3,4.8C17.2,97.2,17.6,97.4,18.1,97.7z M112.5,86.5c1.2,1.5,2.3,2.9,3.4,4.3
		c0.4-0.3,0.9-0.5,1.2-1c-1.1-1.5-2.2-3-3.5-4.3C113.3,85.8,112.9,86.1,112.5,86.5z M33.8,76.8c-1.4,1.3-3,2.4-4.3,3.8
		c0.4,0.4,0.7,0.7,1.1,1.1c1.4-1.2,2.8-2.4,4.2-3.6C34.5,77.6,34.2,77.3,33.8,76.8z M72.9,65.1c-1.9,0-3.6-0.3-5.4-0.1
		c-0.1,0.5-0.1,1,0,1.5c1.6,0.1,3.3-0.1,4.9,0.3C72.8,66.3,73.1,65.8,72.9,65.1z M229.8,77.4c-0.6,0.8-1.1,1.5-1.6,2.3
		c0.5,0.3,0.9,0.6,1.3,0.9c0.6-0.8,1.1-1.5,1.6-2.2C230.7,78,230.3,77.7,229.8,77.4z"/>
	<path class="st2" d="M95.9,130.1c0-0.2-0.1-0.4-0.3-0.4c-2.7-4.8-6.8-7.6-12.1-8.6c-4.5-0.9-8.7,0-12.6,2.4
		c-1.8,1.1-3.5,2.5-4.6,4.4l0,0c-3.9,5-4.2,10.6-2.7,16.4c0.9,3.3,2.3,6.4,3.9,9.4c0.7,1.3,1.4,2.6,2.2,3.9c0.1,0.3,0.2,0.5,0.4,0.7
		c0.9,1.5,1.6,3.1,2.8,4.3l0,0c2,3.8,4.8,7.1,7.2,10.4c0.5,0,0.6-0.3,0.7-0.5c3.6-4.5,6.9-9.3,9.8-14.3c3-5.2,5.8-10.6,6.9-16.6
		C98.4,137.6,98,133.7,95.9,130.1z M89.9,140.7c-1.3,4.5-5.4,8-11.3,7.2c-0.9-0.3-1.7-0.6-2.6-0.9c-0.5-0.4-1.1-0.7-1.6-1.1
		c-3.1-2.4-4.4-6.7-3.2-10.5c1.2-3.9,4.9-6.5,8.9-6.7c1.8-0.1,3.4,0.4,5,1c1.8,1.2,3.4,2.7,4.3,4.7
		C90.1,136.5,90.2,138.6,89.9,140.7z"/>
</g>
</svg>
