<?xml version="1.0" encoding="utf-8"?>
<!-- Generator: Adobe Illustrator 22.0.0, SVG Export Plug-In . SVG Version: 6.00 Build 0)  -->
<svg version="1.1" id="Capa_1" xmlns="http://www.w3.org/2000/svg" xmlns:xlink="http://www.w3.org/1999/xlink" x="0px" y="0px"
	 viewBox="0 0 160.2 158.1" style="enable-background:new 0 0 160.2 158.1;" xml:space="preserve">
<style type="text/css">
	.st0{fill:#FFFFFF;}
</style>
<g>
	<path class="st0" d="M158.9,12.8c0,1-34.6,70.3-51,89c-14,16-21,25-81.5,55c-1.7,0.8,1,2,1,2c98-3,131.5-78,131.5-78
		S158.9,11.8,158.9,12.8z"/>
	<path class="st0" d="M40.4,88.3c5-28,1-46,0-49s-19-9-19-9s4,17,5,24s-0.6,35-4,47c-4,14-17,40-17,40
		C12.4,136.3,35.4,116.3,40.4,88.3z"/>
	<path class="st0" d="M74.9,106.8c12-17,28.5-72.5,28.5-72.5l-21-19c0,0-4.9,38.3-9,51c-9,28-13,32-21,44s-32,35-32,35l-10,7
		C16.4,153.3,62.9,123.8,74.9,106.8z"/>
</g>
</svg>
